<svg width="18" height="20" viewBox="0 0 18 20" fill="none" xmlns="http://www.w3.org/2000/svg">
<path d="M8.99992 6.48002e-06C10.9465 -0.00255243 12.8177 0.752849 14.2169 2.10616C15.6162 3.45948 16.4335 5.30439 16.4959 7.25001L16.4999 7.50001V11.597L17.8799 14.753C17.9629 14.9432 17.9973 15.151 17.9799 15.3578C17.9625 15.5646 17.8939 15.7638 17.7803 15.9374C17.6667 16.111 17.5116 16.2537 17.3291 16.3524C17.1466 16.4511 16.9424 16.5029 16.7349 16.503L11.9999 16.506C12.0009 17.287 11.6974 18.0376 11.1537 18.5983C10.61 19.159 9.86911 19.4856 9.08846 19.5086C8.3078 19.5317 7.54893 19.2494 6.97313 18.7217C6.39732 18.1941 6.04998 17.4627 6.00492 16.683L5.99992 16.503H1.27492C1.06773 16.5028 0.863846 16.4511 0.681575 16.3526C0.499303 16.254 0.344354 16.1118 0.230641 15.9386C0.116928 15.7654 0.0480127 15.5667 0.0300836 15.3603C0.0121546 15.1538 0.0457733 14.9462 0.127921 14.756L1.49992 11.598V7.50001C1.49992 3.34501 4.85192 6.48002e-06 8.99992 6.48002e-06ZM10.4999 16.504L7.49992 16.506C7.49985 16.8913 7.64806 17.2619 7.91381 17.5408C8.17957 17.8198 8.54249 17.9859 8.92734 18.0045C9.31219 18.0231 9.68946 17.893 9.98093 17.641C10.2724 17.389 10.4557 17.0345 10.4929 16.651L10.4989 16.504H10.4999ZM8.99992 1.50001C5.67992 1.50001 2.99992 4.17401 2.99992 7.50001V11.91L1.65592 15.004H16.3529L14.9999 11.911V7.51301L14.9959 7.28801C14.944 5.73342 14.2891 4.26006 13.17 3.17977C12.0509 2.09949 10.5554 1.49706 8.99992 1.50001Z" fill="white"/>
</svg>
