<svg width="148" height="28" viewBox="0 0 148 28" fill="none" xmlns="http://www.w3.org/2000/svg">
<path d="M0.00807289 8.64C0.00807289 6.29778 0.751036 4.49704 2.23696 3.23778C3.74807 1.97852 5.80067 1.34889 8.39474 1.34889C10.3592 1.34889 11.757 1.60074 12.5881 2.10444C13.4192 2.58296 13.8347 3.41407 13.8347 4.59778C13.8347 5.93259 13.2555 6.6 12.097 6.6L11.3414 6.52444C10.8125 6.44889 10.2081 6.41111 9.52807 6.41111C8.36955 6.41111 7.50067 6.61259 6.92141 7.01556C6.36733 7.41852 6.0903 8.03556 6.0903 8.86667V10.0756H10.6992C11.8829 10.0756 12.5629 10.4659 12.7392 11.2467C12.8651 11.7504 12.9281 12.1659 12.9281 12.4933C12.9281 14.1556 12.2103 14.9867 10.7747 14.9867H6.43029V25.2244C6.43029 26.0807 6.21622 26.66 5.78807 26.9622C5.35992 27.2393 4.86881 27.3652 4.31474 27.34L3.55918 27.3022C2.27474 27.3022 1.35548 27.0756 0.801406 26.6222C0.272517 26.1689 0.00807289 25.3881 0.00807289 24.28V8.64ZM13.732 3.54C13.732 2.55778 14.0594 1.75185 14.7143 1.12222C15.3691 0.467408 16.2128 0.140001 17.2454 0.140001C18.278 0.140001 19.1217 0.467408 19.7765 1.12222C20.4313 1.75185 20.7587 2.55778 20.7587 3.54C20.7587 4.52222 20.4313 5.34074 19.7765 5.99556C19.1217 6.62519 18.278 6.94 17.2454 6.94C16.2128 6.94 15.3691 6.62519 14.7143 5.99556C14.0594 5.34074 13.732 4.52222 13.732 3.54ZM20.4565 25.2244C20.4565 26.0807 20.255 26.6474 19.852 26.9244C19.4743 27.2015 18.9957 27.3274 18.4165 27.3022H17.5854C16.3009 27.3022 15.3817 27.0756 14.8276 26.6222C14.2987 26.1689 14.0343 25.3881 14.0343 24.28V10.6422C14.0343 9.78593 14.2231 9.21926 14.6009 8.94222C14.9787 8.66519 15.4698 8.52667 16.0743 8.52667L16.9054 8.56444C18.1898 8.56444 19.0965 8.79111 19.6254 9.24444C20.1794 9.69778 20.4565 10.4785 20.4565 11.5867V25.2244ZM28.3075 25.2244C28.3075 26.0807 28.106 26.6474 27.703 26.9244C27.3252 27.2015 26.8467 27.3274 26.2675 27.3022H25.4364C24.1519 27.3022 23.2326 27.0756 22.6786 26.6222C22.1497 26.1689 21.8852 25.3881 21.8852 24.28V4.10667C21.8852 3.25037 22.0741 2.6837 22.4519 2.40667C22.8297 2.12963 23.3208 1.99111 23.9252 1.99111L24.7564 2.02889C26.0408 2.02889 26.9475 2.25556 27.4764 2.70889C28.0304 3.16222 28.3075 3.94296 28.3075 5.05111V25.2244ZM38.2504 8.07333C40.5422 8.07333 42.4185 8.65259 43.8793 9.81111C44.786 9.20667 45.7052 8.76593 46.6371 8.48889C47.5941 8.21185 48.6645 8.07333 49.8482 8.07333C50.8556 8.07333 51.8126 8.21185 52.7193 8.48889C53.6511 8.74074 54.4571 9.11852 55.1371 9.62222C56.6985 10.8059 57.4793 12.6193 57.4793 15.0622V25.2244C57.4793 26.0807 57.2652 26.66 56.8371 26.9622C56.4089 27.2393 55.9178 27.3652 55.3637 27.34L54.6082 27.3022C53.3237 27.3022 52.4045 27.0756 51.8504 26.6222C51.3215 26.1689 51.0571 25.3881 51.0571 24.28V15.2511C51.0571 13.8156 50.2637 13.0978 48.6771 13.0978C48.4 13.0978 48.06 13.1859 47.6571 13.3622C47.2541 13.5133 46.9141 13.677 46.6371 13.8533C46.6622 13.8785 46.6748 13.9667 46.6748 14.1178V25.2244C46.6748 26.0807 46.4608 26.66 46.0326 26.9622C45.6045 27.2393 45.1134 27.3652 44.5593 27.34L43.8037 27.3022C42.5193 27.3022 41.6 27.0756 41.046 26.6222C40.5171 26.1689 40.2526 25.3881 40.2526 24.28V15.2511C40.2526 14.5711 40.0385 14.0422 39.6104 13.6644C39.2074 13.2867 38.6282 13.0978 37.8726 13.0978C37.1674 13.0978 36.5 13.2993 35.8704 13.7022V25.2244C35.8704 26.0807 35.6563 26.66 35.2282 26.9622C34.8 27.2393 34.3089 27.3652 33.7548 27.34L32.9993 27.3022C31.7148 27.3022 30.7956 27.0756 30.2415 26.6222C29.7126 26.1689 29.4482 25.3881 29.4482 24.28V12.8711C29.4482 12.2667 29.5741 11.763 29.826 11.36C30.0778 10.9319 30.4934 10.5163 31.0726 10.1133C31.9289 9.50889 32.9993 9.01778 34.2837 8.64C35.5934 8.26222 36.9156 8.07333 38.2504 8.07333ZM70.2656 15.3644C70.2656 14.6089 70.0515 14.0422 69.6234 13.6644C69.1952 13.2867 68.5908 13.0978 67.81 13.0978C66.7019 13.0978 65.7826 13.3496 65.0523 13.8533V25.2244C65.0523 26.0807 64.8382 26.66 64.41 26.9622C63.9819 27.2393 63.4908 27.3652 62.9367 27.34L62.1811 27.3022C60.8967 27.3022 59.9774 27.0756 59.4234 26.6222C58.8945 26.1689 58.63 25.3881 58.63 24.28V12.9467C58.63 12.317 58.756 11.7881 59.0078 11.36C59.2597 10.9319 59.6752 10.5163 60.2545 10.1133C61.1863 9.4837 62.3071 8.99259 63.6167 8.64C64.9263 8.26222 66.3241 8.07333 67.81 8.07333C70.656 8.07333 72.8471 8.70296 74.3834 9.96222C75.9197 11.1963 76.6878 12.9215 76.6878 15.1378V25.2244C76.6878 26.0807 76.4737 26.66 76.0456 26.9622C75.6174 27.2393 75.1263 27.3652 74.5723 27.34L73.8167 27.3022C72.5323 27.3022 71.613 27.0756 71.0589 26.6222C70.53 26.1689 70.2656 25.3881 70.2656 24.28V15.3644ZM88.8629 11.1711C89.0644 10.3148 89.4295 9.74815 89.9584 9.47111C90.5125 9.16889 91.2807 9.01778 92.2629 9.01778C93.3458 9.01778 94.2273 9.18148 94.9073 9.50889C95.6125 9.81111 96.0407 10.2644 96.1918 10.8689C96.5192 12.1281 96.7836 13.0852 96.9851 13.74L97.6651 16.3089C98.2695 18.5252 98.6977 20.1874 98.9495 21.2956H99.1384C99.3903 19.7089 99.7555 16.863 100.234 12.7578L100.687 8.75333L100.99 4.59778C101.065 3.69111 101.355 3.08667 101.858 2.78445C102.387 2.48222 103.143 2.33111 104.125 2.33111C105.208 2.33111 106.052 2.55778 106.656 3.01111C107.261 3.43926 107.563 4.09408 107.563 4.97556C107.563 6.33556 107.349 8.65259 106.921 11.9267C106.493 15.2007 106.014 17.9963 105.485 20.3133C104.956 22.4793 104.553 24.0281 104.276 24.96C103.974 25.8415 103.47 26.4207 102.765 26.6978C101.808 27.1007 100.662 27.3022 99.3273 27.3022C98.0932 27.3022 97.0732 27.1511 96.2673 26.8489C95.4866 26.5215 95.0081 26.0681 94.8318 25.4889C94.3532 23.9778 93.5977 21.2578 92.5651 17.3289C91.8347 20.5526 91.2429 23.0585 90.7895 24.8467C90.6636 25.3756 90.4873 25.7911 90.2607 26.0933C90.034 26.3704 89.7318 26.597 89.354 26.7733C88.4221 27.1259 87.3895 27.3022 86.2562 27.3022C85.0221 27.3022 83.9644 27.1511 83.0829 26.8489C82.2266 26.5215 81.6599 26.0681 81.3829 25.4889C81.0051 24.7081 80.4888 23.0081 79.834 20.3889C79.1792 17.7444 78.6377 15.1756 78.2095 12.6822C77.857 10.5919 77.5799 8.53926 77.3784 6.52444L77.2273 5.12667C77.2021 5.05111 77.1895 4.91259 77.1895 4.71111C77.1895 3.90519 77.5044 3.31333 78.134 2.93556C78.7888 2.53259 79.6073 2.33111 80.5895 2.33111C82.6799 2.33111 83.851 3.23778 84.1029 5.05111L85.7651 17.2911L86.1051 19.86L86.3318 21.2956H86.5207L86.8607 19.8222L87.8051 15.8933L88.8629 11.1711ZM126.751 25.2244C126.751 26.0807 126.537 26.66 126.109 26.9622C125.68 27.2393 125.189 27.3652 124.635 27.34L123.88 27.3022C122.595 27.3022 121.676 27.0756 121.122 26.6222C120.593 26.1689 120.329 25.3881 120.329 24.28V15.8933C120.329 14.0296 119.434 13.0978 117.646 13.0978C116.689 13.0978 115.846 13.3119 115.115 13.74V25.2244C115.115 26.0807 114.901 26.66 114.473 26.9622C114.045 27.2393 113.554 27.3652 113 27.34L112.244 27.3022C110.96 27.3022 110.04 27.0756 109.486 26.6222C108.957 26.1689 108.693 25.3881 108.693 24.28V4.10667C108.693 3.25037 108.882 2.6837 109.26 2.40667C109.637 2.12963 110.129 1.99111 110.733 1.99111L111.564 2.02889C112.849 2.02889 113.755 2.25556 114.284 2.70889C114.838 3.16222 115.115 3.94296 115.115 5.05111V8.75333C115.594 8.57704 116.173 8.42593 116.853 8.3C117.533 8.14889 118.188 8.07333 118.817 8.07333C121.386 8.07333 123.351 8.71556 124.711 10C126.071 11.2593 126.751 13.0978 126.751 15.5156V25.2244ZM147.673 17.82C147.673 20.8926 146.778 23.2978 144.99 25.0356C143.227 26.7481 140.822 27.6044 137.775 27.6044C134.778 27.6044 132.398 26.723 130.635 24.96C128.796 23.2474 127.877 20.8674 127.877 17.82C127.877 16.3593 128.116 15.0244 128.595 13.8156C129.073 12.5815 129.753 11.5363 130.635 10.68C132.448 8.94222 134.828 8.07333 137.775 8.07333C139.21 8.07333 140.545 8.3 141.779 8.75333C143.013 9.20667 144.071 9.86148 144.953 10.7178C145.834 11.5741 146.501 12.6193 146.955 13.8533C147.433 15.0622 147.673 16.3844 147.673 17.82ZM134.45 17.82C134.45 19.3311 134.74 20.5022 135.319 21.3333C135.924 22.1644 136.755 22.58 137.813 22.58C138.87 22.58 139.676 22.1644 140.23 21.3333C140.81 20.5022 141.099 19.3311 141.099 17.82C141.099 16.3089 140.81 15.1504 140.23 14.3444C139.651 13.5133 138.833 13.0978 137.775 13.0978C136.717 13.0978 135.898 13.5133 135.319 14.3444C134.74 15.1504 134.45 16.3089 134.45 17.82Z" fill="white"/>
</svg>
