<svg width="24" height="24" viewBox="0 0 24 24" fill="none" xmlns="http://www.w3.org/2000/svg">
<path d="M18.6748 23.9873L5.34851 24C2.41673 24.0027 0.0159938 21.6066 0.0126622 18.6748L2.22137e-06 5.34851C-0.00266304 2.41673 2.39341 0.0159938 5.32519 0.0126622L18.6515 2.22137e-06C21.5833 -0.00266304 23.984 2.39341 23.9873 5.32519L24 18.6515C24.0033 21.5839 21.6066 23.9847 18.6748 23.9873Z" fill="white"/>
<path d="M18.6748 23.9873L5.34851 24C2.41673 24.0027 0.0159938 21.6066 0.0126622 18.6748L2.22137e-06 5.34851C-0.00266304 2.41673 2.39341 0.0159938 5.32519 0.0126622L18.6515 2.22137e-06C21.5833 -0.00266304 23.984 2.39341 23.9873 5.32519L24 18.6515C24.0033 21.5839 21.6066 23.9847 18.6748 23.9873Z" fill="white"/>
<path d="M12.0011 16.5716C9.48095 16.5716 7.42969 14.521 7.42969 12.0001C7.42969 9.47932 9.48095 7.42871 12.0011 7.42871C14.5213 7.42871 16.5725 9.47932 16.5725 12.0001C16.5725 14.521 14.5213 16.5716 12.0011 16.5716ZM12.0011 8.73483C10.2006 8.73483 8.73581 10.1996 8.73581 12.0001C8.73581 13.8006 10.2006 15.2654 12.0011 15.2654C13.8016 15.2654 15.2664 13.8006 15.2664 12.0001C15.2664 10.1996 13.8016 8.73483 12.0011 8.73483Z" fill="#323232"/>
<path d="M16.8571 7.98644C17.3305 7.98644 17.7143 7.60166 17.7143 7.12701C17.7143 6.65236 17.3305 6.26758 16.8571 6.26758C16.3838 6.26758 16 6.65236 16 7.12701C16 7.60166 16.3838 7.98644 16.8571 7.98644Z" fill="#323232"/>
<path d="M15.9572 20.5716H8.04507C5.50068 20.5716 3.42969 18.5012 3.42969 15.9562V8.0441C3.42969 5.49904 5.50068 3.42871 8.04507 3.42871H15.9572C18.5016 3.42871 20.5725 5.49904 20.5725 8.0441V15.9562C20.5725 18.5012 18.5016 20.5716 15.9572 20.5716ZM8.04507 4.74739C6.22727 4.74739 4.74837 6.22629 4.74837 8.0441V15.9562C4.74837 17.774 6.22727 19.2529 8.04507 19.2529H15.9572C17.775 19.2529 19.2539 17.774 19.2539 15.9562V8.0441C19.2539 6.22629 17.775 4.74739 15.9572 4.74739H8.04507Z" fill="#323232"/>
</svg>
