<svg width="18" height="17" viewBox="0 0 18 17" fill="none" xmlns="http://www.w3.org/2000/svg">
<path d="M0.8 15.7933V15.7932V3.00024C0.8 2.41677 1.03179 1.85719 1.44437 1.44461C1.85695 1.03203 2.41652 0.800244 3 0.800244H15C15.5835 0.800244 16.1431 1.03203 16.5556 1.44461C16.9682 1.85719 17.2 2.41677 17.2 3.00024V11.0002C17.2 11.5837 16.9682 12.1433 16.5556 12.5559C16.1431 12.9685 15.5835 13.2002 15 13.2002H5.41404C5.41403 13.2002 5.41401 13.2002 5.414 13.2002C5.20186 13.2003 4.99843 13.2846 4.84844 13.4346L4.84842 13.4347L1.9956 16.2875L0.8 15.7933ZM0.8 15.7933C0.800029 15.9318 0.84115 16.0672 0.918156 16.1823M0.8 15.7933L0.918156 16.1823M0.918156 16.1823C0.995163 16.2974 1.10459 16.3871 1.2326 16.4401M0.918156 16.1823L1.2326 16.4401M1.2326 16.4401C1.3606 16.493 1.50143 16.5067 1.63725 16.4796M1.2326 16.4401L1.63725 16.4796M1.63725 16.4796C1.77299 16.4524 1.89763 16.3856 1.99542 16.2877L1.63725 16.4796ZM5.414 11.8002H5.41396C4.83053 11.8004 4.27104 12.0322 3.85856 12.4448L2.2 14.1034V3.00024C2.2 2.78807 2.28429 2.58459 2.43431 2.43456C2.58434 2.28453 2.78783 2.20024 3 2.20024H15C15.2122 2.20024 15.4157 2.28453 15.5657 2.43456C15.7157 2.58459 15.8 2.78807 15.8 3.00024V11.0002C15.8 11.2124 15.7157 11.4159 15.5657 11.5659C15.4157 11.716 15.2122 11.8002 15 11.8002H5.414Z" fill="white" stroke="white" stroke-width="0.4"/>
</svg>
