<svg width="20" height="17" viewBox="0 0 20 17" fill="none" xmlns="http://www.w3.org/2000/svg">
<path d="M19.4118 14.2285H5.93943C5.83793 14.2285 5.75488 14.3117 5.75488 14.4133V15.7068C5.75488 15.8084 5.83793 15.8915 5.93943 15.8915H19.4118C19.5133 15.8915 19.5964 15.8084 19.5964 15.7068V14.4133C19.5964 14.3117 19.5133 14.2285 19.4118 14.2285ZM19.4118 1.10894H5.93943C5.83793 1.10894 5.75488 1.19209 5.75488 1.29372V2.5872C5.75488 2.68883 5.83793 2.77198 5.93943 2.77198H19.4118C19.5133 2.77198 19.5964 2.68883 19.5964 2.5872V1.29372C19.5964 1.19209 19.5133 1.10894 19.4118 1.10894ZM19.4118 7.66872H5.93943C5.83793 7.66872 5.75488 7.75187 5.75488 7.85351V9.14698C5.75488 9.24861 5.83793 9.33177 5.93943 9.33177H19.4118C19.5133 9.33177 19.5964 9.24861 19.5964 9.14698V7.85351C19.5964 7.75187 19.5133 7.66872 19.4118 7.66872ZM3.17113 13.1198H0.495109C0.444357 13.1198 0.402832 13.1614 0.402832 13.2122V13.9975C0.402832 14.0483 0.444357 14.0899 0.495109 14.0899H2.16532V14.5634H1.34175C1.291 14.5634 1.24947 14.605 1.24947 14.6558V15.4411C1.24947 15.492 1.291 15.5335 1.34175 15.5335H2.16532V16.0301H0.495109C0.444357 16.0301 0.402832 16.0717 0.402832 16.1225V16.9079C0.402832 16.9587 0.444357 17.0002 0.495109 17.0002H3.17113C3.22188 17.0002 3.26341 16.9587 3.26341 16.9079V13.2122C3.26341 13.1614 3.22188 13.1198 3.17113 13.1198ZM0.495109 1.01655H1.37174V3.78829C1.37174 3.8391 1.41326 3.88068 1.46401 3.88068H2.38678C2.43753 3.88068 2.47906 3.8391 2.47906 3.78829V0.185027C2.47906 0.0833963 2.39601 0.000244141 2.2945 0.000244141H0.495109C0.444357 0.000244141 0.402832 0.0418202 0.402832 0.0926354V0.924157C0.402832 0.974972 0.444357 1.01655 0.495109 1.01655ZM3.17113 6.56003H0.495109C0.444357 6.56003 0.402832 6.6016 0.402832 6.65242V7.48394C0.402832 7.53476 0.444357 7.57633 0.495109 7.57633H2.07304L0.451277 9.37103C0.420689 9.40543 0.403492 9.44971 0.402832 9.49576V10.3481C0.402832 10.3989 0.444357 10.4405 0.495109 10.4405H3.17113C3.22188 10.4405 3.26341 10.3989 3.26341 10.3481V9.51655C3.26341 9.46573 3.22188 9.42416 3.17113 9.42416H1.5932L3.21496 7.62946C3.24555 7.59506 3.26275 7.55078 3.26341 7.50473V6.65242C3.26341 6.6016 3.22188 6.56003 3.17113 6.56003Z" fill="white"/>
</svg>
