<svg width="15" height="14" viewBox="0 0 15 14" fill="none" xmlns="http://www.w3.org/2000/svg">
<path d="M14.4383 0H0.561674C0.264317 0 0 0.275861 0 0.586206V13.4138C0 13.7586 0.264317 14 0.561674 14H14.4383C14.7357 14 15 13.7241 15 13.4138V0.586206C15 0.275861 14.7357 0 14.4383 0ZM5.02203 11.6897C5.02203 11.8966 4.85683 12.069 4.69163 12.069H2.37885C2.18062 12.069 2.04846 11.8966 2.04846 11.6897V9.93104C2.04846 9.72414 2.18062 9.58621 2.37885 9.58621H4.69163C4.88987 9.58621 5.02203 9.75862 5.02203 9.93104V11.6897ZM5.02203 4.06897C5.02203 4.27586 4.85683 4.41379 4.69163 4.41379H2.37885C2.18062 4.41379 2.04846 4.24138 2.04846 4.06897V2.31034C2.04846 2.10345 2.18062 1.96552 2.37885 1.96552H4.69163C4.88987 1.96552 5.02203 2.13793 5.02203 2.31034V4.06897ZM9.01982 11.6897C9.01982 11.8966 8.85462 12.069 8.68943 12.069H6.37665C6.17841 12.069 6.01322 11.8966 6.01322 11.6897V9.93104C6.01322 9.72414 6.17841 9.58621 6.37665 9.58621H8.68943C8.88766 9.58621 9.01982 9.75862 9.01982 9.93104V11.6897ZM9.01982 4.06897C9.01982 4.27586 8.85462 4.41379 8.68943 4.41379H6.37665C6.17841 4.41379 6.01322 4.24138 6.01322 4.06897V2.31034C6.01322 2.10345 6.17841 1.96552 6.37665 1.96552H8.68943C8.88766 1.96552 9.01982 2.13793 9.01982 2.31034V4.06897ZM12.9846 11.6897C12.9846 11.8966 12.8194 12.069 12.6542 12.069H10.3414C10.1432 12.069 10.011 11.8966 10.011 11.6897V9.93104C10.011 9.72414 10.1762 9.58621 10.3414 9.58621H12.6542C12.8524 9.58621 12.9846 9.75862 12.9846 9.93104V11.6897ZM12.9846 4.06897C12.9846 4.27586 12.8194 4.41379 12.6542 4.41379H10.3414C10.1432 4.41379 10.011 4.24138 10.011 4.06897V2.31034C10.011 2.10345 10.1762 1.96552 10.3414 1.96552H12.6542C12.8524 1.96552 12.9846 2.13793 12.9846 2.31034V4.06897Z" fill="#F9F9FF"/>
</svg>
