<svg width="17" height="19" viewBox="0 0 17 19" fill="none" xmlns="http://www.w3.org/2000/svg">
<path d="M16.2899 8.22247H4.67897L15.8638 4.67918C16.2188 4.56845 16.4319 4.16245 16.3254 3.75644L15.3667 0.508423C15.2601 0.13933 14.8696 -0.0821261 14.479 0.0286019L0.48911 4.45772C0.134037 4.56845 -0.0790065 4.97445 0.0275154 5.38046L0.986212 8.62848L1.02172 8.70229C0.986212 8.77611 0.950705 8.88684 0.950705 8.96066V18.2618C0.950705 18.6678 1.27027 19 1.66085 19H16.2899C16.6804 19 17 18.6678 17 18.2618V8.96066C17 8.55466 16.6804 8.22247 16.2899 8.22247ZM13.2007 1.94789L14.2304 1.6157L14.7985 3.46117L12.7391 4.12554L13.2007 1.94789ZM10.1116 2.94444L12.2775 2.24316L11.8159 4.42081L9.61448 5.12209L10.1116 2.94444ZM7.02245 3.94099L9.1884 3.23971L8.69129 5.41736L6.52535 6.11864L7.02245 3.94099ZM2.47752 7.41047L2.12245 7.5212L1.58984 5.67573L2.97462 5.23282L2.47752 7.41047ZM3.89781 4.90063L6.06375 4.19936L5.56665 6.37701L3.40071 7.07828L3.89781 4.90063ZM13.3427 15.4198H4.64346C4.39491 15.4198 4.21738 15.2352 4.21738 14.9769C4.21738 14.7185 4.39491 14.534 4.64346 14.534H13.3072C13.5558 14.534 13.7333 14.7185 13.7333 14.9769C13.7333 15.2352 13.5558 15.4198 13.3427 15.4198ZM13.3427 12.6147H4.64346C4.39491 12.6147 4.21738 12.4301 4.21738 12.1718C4.21738 11.9134 4.39491 11.7289 4.64346 11.7289H13.3072C13.5558 11.7289 13.7333 11.9134 13.7333 12.1718C13.7333 12.4301 13.5558 12.6147 13.3427 12.6147Z" fill="#356454"/>
</svg>
