<svg width="18" height="18" viewBox="0 0 18 18" fill="none" xmlns="http://www.w3.org/2000/svg">
<path fill-rule="evenodd" clip-rule="evenodd" d="M12.273 6.54568C12.273 7.41366 11.9282 8.24609 11.3144 8.85984C10.7007 9.4736 9.86825 9.8184 9.00027 9.8184C8.13229 9.8184 7.29985 9.4736 6.6861 8.85984C6.07234 8.24609 5.72754 7.41366 5.72754 6.54568C5.72754 5.6777 6.07234 4.84526 6.6861 4.23151C7.29985 3.61775 8.13229 3.27295 9.00027 3.27295C9.86825 3.27295 10.7007 3.61775 11.3144 4.23151C11.9282 4.84526 12.273 5.6777 12.273 6.54568ZM10.6366 6.54568C10.6366 6.97967 10.4642 7.39588 10.1574 7.70276C9.85047 8.00964 9.43426 8.18204 9.00027 8.18204C8.56628 8.18204 8.15006 8.00964 7.84318 7.70276C7.53631 7.39588 7.3639 6.97967 7.3639 6.54568C7.3639 6.11169 7.53631 5.69547 7.84318 5.38859C8.15006 5.08171 8.56628 4.90931 9.00027 4.90931C9.43426 4.90931 9.85047 5.08171 10.1574 5.38859C10.4642 5.69547 10.6366 6.11169 10.6366 6.54568Z" fill="white"/>
<path fill-rule="evenodd" clip-rule="evenodd" d="M9 0.000244141C4.02955 0.000244141 0 4.02979 0 9.00024C0 13.9707 4.02955 18.0002 9 18.0002C13.9705 18.0002 18 13.9707 18 9.00024C18 4.02979 13.9705 0.000244141 9 0.000244141ZM1.63636 9.00024C1.63636 10.7102 2.21973 12.2844 3.19745 13.5346C3.8841 12.6329 4.76992 11.9021 5.78572 11.3994C6.80152 10.8967 7.91979 10.6356 9.05318 10.6366C10.1719 10.6355 11.2761 10.8899 12.2817 11.3802C13.2872 11.8705 14.1676 12.5838 14.8557 13.4659C15.5646 12.5361 16.042 11.4509 16.2482 10.3C16.4544 9.14912 16.3836 7.96568 16.0417 6.84759C15.6997 5.72951 15.0965 4.70892 14.2818 3.87027C13.4671 3.03163 12.4644 2.39904 11.3567 2.02484C10.249 1.65065 9.06807 1.5456 7.9117 1.7184C6.75534 1.8912 5.65674 2.33688 4.70681 3.01856C3.75688 3.70024 2.98294 4.59832 2.44901 5.63849C1.91508 6.67867 1.63651 7.83104 1.63636 9.00024ZM9 16.3639C7.3096 16.3664 5.67022 15.7849 4.35927 14.7177C4.88694 13.9623 5.58928 13.3455 6.40652 12.9199C7.22377 12.4943 8.13174 12.2723 9.05318 12.273C9.96313 12.2722 10.8601 12.4886 11.6697 12.9041C12.4792 13.3197 13.1779 13.9223 13.7078 14.6621C12.3867 15.7639 10.7203 16.3663 9 16.3639Z" fill="white"/>
</svg>
