<svg width="193" height="21" viewBox="0 0 193 21" fill="none" xmlns="http://www.w3.org/2000/svg">
<path d="M0.39 6.364C0.39 4.752 0.901333 3.51267 1.924 2.646C2.964 1.77933 4.37667 1.346 6.162 1.346C7.514 1.346 8.476 1.51933 9.048 1.866C9.62 2.19533 9.906 2.76733 9.906 3.582C9.906 4.50067 9.50733 4.96 8.71 4.96L8.19 4.908C7.826 4.856 7.41 4.83 6.942 4.83C6.14467 4.83 5.54667 4.96867 5.148 5.246C4.76667 5.52333 4.576 5.948 4.576 6.52V7.352H7.748C8.56267 7.352 9.03067 7.62067 9.152 8.158C9.23867 8.50467 9.282 8.79067 9.282 9.016C9.282 10.16 8.788 10.732 7.8 10.732H4.81V17.778C4.81 18.3673 4.66267 18.766 4.368 18.974C4.07333 19.1647 3.73533 19.2513 3.354 19.234L2.834 19.208C1.95 19.208 1.31733 19.052 0.936 18.74C0.572 18.428 0.39 17.8907 0.39 17.128V6.364ZM9.83531 2.854C9.83531 2.178 10.0606 1.62333 10.5113 1.19C10.962 0.739332 11.5426 0.513999 12.2533 0.513999C12.964 0.513999 13.5446 0.739332 13.9953 1.19C14.446 1.62333 14.6713 2.178 14.6713 2.854C14.6713 3.53 14.446 4.09333 13.9953 4.544C13.5446 4.97733 12.964 5.194 12.2533 5.194C11.5426 5.194 10.962 4.97733 10.5113 4.544C10.0606 4.09333 9.83531 3.53 9.83531 2.854ZM14.4633 17.778C14.4633 18.3673 14.3246 18.7573 14.0473 18.948C13.7873 19.1387 13.458 19.2253 13.0593 19.208H12.4873C11.6033 19.208 10.9706 19.052 10.5893 18.74C10.2253 18.428 10.0433 17.8907 10.0433 17.128V7.742C10.0433 7.15267 10.1733 6.76267 10.4333 6.572C10.6933 6.38133 11.0313 6.286 11.4473 6.286L12.0193 6.312C12.9033 6.312 13.5273 6.468 13.8913 6.78C14.2726 7.092 14.4633 7.62933 14.4633 8.392V17.778ZM19.8666 17.778C19.8666 18.3673 19.728 18.7573 19.4506 18.948C19.1906 19.1387 18.8613 19.2253 18.4626 19.208H17.8906C17.0066 19.208 16.374 19.052 15.9926 18.74C15.6286 18.428 15.4466 17.8907 15.4466 17.128V3.244C15.4466 2.65467 15.5766 2.26467 15.8366 2.074C16.0966 1.88333 16.4346 1.788 16.8506 1.788L17.4226 1.814C18.3066 1.814 18.9306 1.97 19.2946 2.282C19.676 2.594 19.8666 3.13133 19.8666 3.894V17.778ZM26.7097 5.974C28.2871 5.974 29.5784 6.37267 30.5837 7.17C31.2077 6.754 31.8404 6.45067 32.4817 6.26C33.1404 6.06933 33.8771 5.974 34.6917 5.974C35.3851 5.974 36.0437 6.06933 36.6677 6.26C37.3091 6.43333 37.8637 6.69333 38.3317 7.04C39.4064 7.85467 39.9437 9.10267 39.9437 10.784V17.778C39.9437 18.3673 39.7964 18.766 39.5017 18.974C39.2071 19.1647 38.8691 19.2513 38.4877 19.234L37.9677 19.208C37.0837 19.208 36.4511 19.052 36.0697 18.74C35.7057 18.428 35.5237 17.8907 35.5237 17.128V10.914C35.5237 9.926 34.9777 9.432 33.8857 9.432C33.6951 9.432 33.4611 9.49267 33.1837 9.614C32.9064 9.718 32.6724 9.83067 32.4817 9.952C32.4991 9.96933 32.5077 10.03 32.5077 10.134V17.778C32.5077 18.3673 32.3604 18.766 32.0657 18.974C31.7711 19.1647 31.4331 19.2513 31.0517 19.234L30.5317 19.208C29.6477 19.208 29.0151 19.052 28.6337 18.74C28.2697 18.428 28.0877 17.8907 28.0877 17.128V10.914C28.0877 10.446 27.9404 10.082 27.6457 9.822C27.3684 9.562 26.9697 9.432 26.4497 9.432C25.9644 9.432 25.5051 9.57067 25.0717 9.848V17.778C25.0717 18.3673 24.9244 18.766 24.6297 18.974C24.3351 19.1647 23.9971 19.2513 23.6157 19.234L23.0957 19.208C22.2117 19.208 21.5791 19.052 21.1977 18.74C20.8337 18.428 20.6517 17.8907 20.6517 17.128V9.276C20.6517 8.86 20.7384 8.51333 20.9117 8.236C21.0851 7.94133 21.3711 7.65533 21.7697 7.378C22.3591 6.962 23.0957 6.624 23.9797 6.364C24.8811 6.104 25.7911 5.974 26.7097 5.974ZM48.7437 10.992C48.7437 10.472 48.5964 10.082 48.3017 9.822C48.007 9.562 47.591 9.432 47.0537 9.432C46.291 9.432 45.6584 9.60533 45.1557 9.952V17.778C45.1557 18.3673 45.0084 18.766 44.7137 18.974C44.419 19.1647 44.081 19.2513 43.6997 19.234L43.1797 19.208C42.2957 19.208 41.663 19.052 41.2817 18.74C40.9177 18.428 40.7357 17.8907 40.7357 17.128V9.328C40.7357 8.89467 40.8224 8.53067 40.9957 8.236C41.169 7.94133 41.455 7.65533 41.8537 7.378C42.495 6.94467 43.2664 6.60667 44.1677 6.364C45.069 6.104 46.031 5.974 47.0537 5.974C49.0124 5.974 50.5204 6.40733 51.5777 7.274C52.635 8.12333 53.1637 9.31067 53.1637 10.836V17.778C53.1637 18.3673 53.0164 18.766 52.7217 18.974C52.427 19.1647 52.089 19.2513 51.7077 19.234L51.1877 19.208C50.3037 19.208 49.671 19.052 49.2897 18.74C48.9257 18.428 48.7437 17.8907 48.7437 17.128V10.992ZM61.543 8.106C61.6817 7.51667 61.933 7.12667 62.297 6.936C62.6783 6.728 63.207 6.624 63.883 6.624C64.6283 6.624 65.235 6.73667 65.703 6.962C66.1883 7.17 66.483 7.482 66.587 7.898C66.8123 8.76467 66.9944 9.42333 67.133 9.874L67.601 11.642C68.017 13.1673 68.3117 14.3113 68.485 15.074H68.615C68.7883 13.982 69.0397 12.0233 69.369 9.198L69.681 6.442L69.889 3.582C69.941 2.958 70.1403 2.542 70.487 2.334C70.851 2.126 71.371 2.022 72.047 2.022C72.7923 2.022 73.373 2.178 73.789 2.49C74.205 2.78467 74.413 3.23533 74.413 3.842C74.413 4.778 74.2657 6.37267 73.971 8.626C73.6764 10.8793 73.347 12.8033 72.983 14.398C72.619 15.8887 72.3417 16.9547 72.151 17.596C71.943 18.2027 71.5964 18.6013 71.111 18.792C70.4523 19.0693 69.6637 19.208 68.745 19.208C67.8957 19.208 67.1937 19.104 66.639 18.896C66.1017 18.6707 65.7723 18.3587 65.651 17.96C65.3217 16.92 64.8017 15.048 64.091 12.344C63.5883 14.5627 63.181 16.2873 62.869 17.518C62.7823 17.882 62.661 18.168 62.505 18.376C62.349 18.5667 62.141 18.7227 61.881 18.844C61.2397 19.0867 60.529 19.208 59.749 19.208C58.8997 19.208 58.1717 19.104 57.565 18.896C56.9757 18.6707 56.5857 18.3587 56.395 17.96C56.135 17.4227 55.7797 16.2527 55.329 14.45C54.8783 12.63 54.5057 10.862 54.211 9.146C53.9683 7.70733 53.7777 6.29467 53.639 4.908L53.535 3.946C53.5177 3.894 53.509 3.79867 53.509 3.66C53.509 3.10533 53.7257 2.698 54.159 2.438C54.6097 2.16067 55.173 2.022 55.849 2.022C57.2877 2.022 58.0937 2.646 58.267 3.894L59.411 12.318L59.645 14.086L59.801 15.074H59.931L60.165 14.06L60.815 11.356L61.543 8.106ZM87.6188 17.778C87.6188 18.3673 87.4714 18.766 87.1768 18.974C86.8821 19.1647 86.5441 19.2513 86.1628 19.234L85.6428 19.208C84.7588 19.208 84.1261 19.052 83.7448 18.74C83.3808 18.428 83.1988 17.8907 83.1988 17.128V11.356C83.1988 10.0733 82.5834 9.432 81.3528 9.432C80.6941 9.432 80.1134 9.57933 79.6108 9.874V17.778C79.6108 18.3673 79.4634 18.766 79.1688 18.974C78.8741 19.1647 78.5361 19.2513 78.1548 19.234L77.6348 19.208C76.7508 19.208 76.1181 19.052 75.7368 18.74C75.3728 18.428 75.1908 17.8907 75.1908 17.128V3.244C75.1908 2.65467 75.3208 2.26467 75.5808 2.074C75.8408 1.88333 76.1788 1.788 76.5948 1.788L77.1668 1.814C78.0508 1.814 78.6748 1.97 79.0388 2.282C79.4201 2.594 79.6108 3.13133 79.6108 3.894V6.442C79.9401 6.32067 80.3388 6.21667 80.8068 6.13C81.2748 6.026 81.7254 5.974 82.1588 5.974C83.9268 5.974 85.2788 6.416 86.2148 7.3C87.1508 8.16667 87.6188 9.432 87.6188 11.096V17.778ZM102.018 12.682C102.018 14.7967 101.403 16.452 100.172 17.648C98.9586 18.8267 97.3032 19.416 95.2059 19.416C93.1432 19.416 91.5052 18.8093 90.2919 17.596C89.0266 16.4173 88.3939 14.7793 88.3939 12.682C88.3939 11.6767 88.5586 10.758 88.8879 9.926C89.2172 9.07667 89.6852 8.35733 90.2919 7.768C91.5399 6.572 93.1779 5.974 95.2059 5.974C96.1939 5.974 97.1126 6.13 97.9619 6.442C98.8112 6.754 99.5392 7.20467 100.146 7.794C100.753 8.38333 101.212 9.10267 101.524 9.952C101.853 10.784 102.018 11.694 102.018 12.682ZM92.9179 12.682C92.9179 13.722 93.1172 14.528 93.5159 15.1C93.9319 15.672 94.5039 15.958 95.2319 15.958C95.9599 15.958 96.5146 15.672 96.8959 15.1C97.2946 14.528 97.4939 13.722 97.4939 12.682C97.4939 11.642 97.2946 10.8447 96.8959 10.29C96.4972 9.718 95.9339 9.432 95.2059 9.432C94.4779 9.432 93.9146 9.718 93.5159 10.29C93.1172 10.8447 92.9179 11.642 92.9179 12.682Z" fill="white"/>
<path d="M119.084 18V7.33594H122.739C123.945 7.33594 124.863 7.57764 125.493 8.06104C126.123 8.54443 126.438 9.26465 126.438 10.2217C126.438 10.71 126.306 11.1494 126.042 11.54C125.778 11.9307 125.393 12.2334 124.885 12.4482C125.461 12.6045 125.905 12.8999 126.218 13.3345C126.535 13.7642 126.694 14.2817 126.694 14.8872C126.694 15.8882 126.372 16.6572 125.727 17.1943C125.087 17.7314 124.169 18 122.973 18H119.084ZM120.937 13.188V16.5205H122.995C123.576 16.5205 124.03 16.3765 124.357 16.0884C124.685 15.8003 124.848 15.3999 124.848 14.8872C124.848 13.7788 124.282 13.2124 123.149 13.188H120.937ZM120.937 11.8257H122.753C123.33 11.8257 123.779 11.6963 124.101 11.4375C124.428 11.1738 124.592 10.8027 124.592 10.3242C124.592 9.79688 124.44 9.41602 124.138 9.18164C123.84 8.94727 123.374 8.83008 122.739 8.83008H120.937V11.8257ZM140.847 7.33594V14.4624C140.847 15.5952 140.483 16.4937 139.756 17.1577C139.033 17.8169 138.069 18.1465 136.863 18.1465C135.642 18.1465 134.673 17.8218 133.955 17.1724C133.237 16.5181 132.878 15.6123 132.878 14.4551V7.33594H134.724V14.4697C134.724 15.1826 134.905 15.7271 135.266 16.103C135.627 16.479 136.16 16.667 136.863 16.667C138.289 16.667 139.001 15.915 139.001 14.4111V7.33594H140.847ZM150.811 12.3896L153.265 7.33594H155.315L151.741 14.0742V18H149.881V14.0742L146.299 7.33594H148.357L150.811 12.3896ZM167.206 13.2393H162.826V16.5205H167.945V18H160.973V7.33594H167.894V8.83008H162.826V11.7744H167.206V13.2393ZM177.873 13.8911H175.807V18H173.954V7.33594H177.704C178.935 7.33594 179.884 7.61182 180.553 8.16357C181.222 8.71533 181.557 9.51367 181.557 10.5586C181.557 11.2715 181.383 11.8696 181.037 12.353C180.695 12.8315 180.216 13.2002 179.601 13.459L181.996 17.9048V18H180.011L177.873 13.8911ZM175.807 12.4043H177.711C178.336 12.4043 178.825 12.248 179.176 11.9355C179.528 11.6182 179.704 11.186 179.704 10.6392C179.704 10.0679 179.54 9.62598 179.213 9.31348C178.891 9.00098 178.407 8.83984 177.763 8.83008H175.807V12.4043Z" fill="white" fill-opacity="0.4"/>
</svg>
