<svg width="14" height="18" viewBox="0 0 14 18" fill="none" xmlns="http://www.w3.org/2000/svg">
<path d="M13.2 16.7931V16.793V3.29297C13.2 2.70949 12.9682 2.14991 12.5556 1.73733C12.1431 1.32475 11.5835 1.09297 11 1.09297H3C2.41652 1.09297 1.85694 1.32475 1.44436 1.73733C1.03178 2.14991 0.8 2.70949 0.8 3.29297L0.8 16.793L0.8 16.7931C0.800065 16.9197 0.834474 17.0439 0.89956 17.1525C0.964646 17.2611 1.05797 17.3501 1.1696 17.4098C1.28123 17.4696 1.40697 17.498 1.53345 17.4919C1.65657 17.486 1.77589 17.4477 1.87938 17.381L7 14.6212L12.1206 17.381C12.2241 17.4477 12.3434 17.486 12.4666 17.4919C12.593 17.498 12.7188 17.4696 12.8304 17.4098C12.942 17.3501 13.0354 17.2611 13.1004 17.1525C13.1655 17.0439 13.1999 16.9197 13.2 16.7931ZM2.43431 2.72728C2.58434 2.57725 2.78783 2.49297 3 2.49297H11C11.2122 2.49297 11.4157 2.57725 11.5657 2.72728C11.7157 2.87731 11.8 3.0808 11.8 3.29297V15.5279L7.37842 13.2043C7.2656 13.1318 7.13426 13.0932 7 13.0932C6.86574 13.0932 6.7344 13.1318 6.62158 13.2043L2.2 15.5279V3.29297C2.2 3.0808 2.28429 2.87731 2.43431 2.72728Z" fill="white" stroke="white" stroke-width="0.4"/>
</svg>
