<svg width="11" height="12" viewBox="0 0 11 12" fill="none" xmlns="http://www.w3.org/2000/svg">
<path d="M10.9709 4.44901C10.9364 4.3472 10.8727 4.25774 10.7879 4.19168C10.703 4.12561 10.6007 4.08584 10.4935 4.07726L7.35796 3.82814L6.0011 0.824989C5.95789 0.728264 5.8876 0.64611 5.79872 0.588442C5.70985 0.530775 5.60618 0.500058 5.50022 0.5C5.39427 0.499942 5.29057 0.530545 5.20163 0.588114C5.11269 0.645684 5.04231 0.727761 4.99899 0.824439L3.64214 3.82814L0.506567 4.07726C0.401217 4.0856 0.300502 4.12412 0.216471 4.1882C0.13244 4.25227 0.068651 4.3392 0.0327359 4.43858C-0.00317923 4.53795 -0.00969983 4.64557 0.0139542 4.74856C0.0376083 4.85154 0.0904354 4.94553 0.166115 5.01928L2.48328 7.27783L1.66377 10.826C1.63889 10.9334 1.64687 11.0458 1.68666 11.1486C1.72646 11.2514 1.79625 11.3399 1.88697 11.4025C1.97768 11.4652 2.08514 11.4991 2.1954 11.5C2.30565 11.5008 2.41362 11.4685 2.50528 11.4072L5.50005 9.411L8.49481 11.4072C8.5885 11.4694 8.69899 11.5014 8.81141 11.499C8.92384 11.4965 9.03282 11.4597 9.12368 11.3934C9.21455 11.3272 9.28295 11.2347 9.31969 11.1285C9.35643 11.0222 9.35973 10.9072 9.32917 10.799L8.32321 7.27948L10.818 5.03468C10.9814 4.8873 11.0413 4.65743 10.9709 4.44901Z" fill="#FF8718"/>
</svg>
