<svg width="10" height="14" viewBox="0 0 10 14" fill="none" xmlns="http://www.w3.org/2000/svg">
<path d="M5.00016 0.211914C2.42283 0.211914 0.333496 2.30125 0.333496 4.87858C0.333496 7.52258 3.2695 11.4252 4.48416 12.9259C4.75083 13.2552 5.2495 13.2552 5.51616 12.9259C6.73083 11.4252 9.66683 7.52258 9.66683 4.87858C9.66683 2.30125 7.5775 0.211914 5.00016 0.211914ZM5.00016 6.54525C4.0795 6.54525 3.3335 5.79925 3.3335 4.87858C3.3335 3.95791 4.0795 3.21191 5.00016 3.21191C5.92083 3.21191 6.66683 3.95791 6.66683 4.87858C6.66683 5.79925 5.92083 6.54525 5.00016 6.54525Z" fill="#939393"/>
</svg>
