<svg width="15" height="14" viewBox="0 0 15 14" fill="none" xmlns="http://www.w3.org/2000/svg">
<path d="M13.3569 4.42105H9.22175L10.0492 1.94011C10.1981 1.49211 10.1229 0.995474 9.84659 0.612316C9.57028 0.229158 9.12228 0 8.64996 0H7.46217C7.24333 0 7.03628 0.0972631 6.89554 0.265263L3.43238 4.42105H1.56743C0.754697 4.42105 0.09375 5.082 0.09375 5.89474V12.5263C0.09375 13.3391 0.754697 14 1.56743 14H11.3726C11.6724 13.999 11.9649 13.907 12.2113 13.7363C12.4577 13.5655 12.6465 13.324 12.7527 13.0436L14.7842 7.62705C14.815 7.54432 14.8307 7.45672 14.8306 7.36842V5.89474C14.8306 5.082 14.1696 4.42105 13.3569 4.42105ZM1.56743 5.89474H3.04112V12.5263H1.56743V5.89474ZM13.3569 7.23505L11.3726 12.5263H4.5148V5.42463L7.80701 1.47368H8.65144L7.50049 4.92432C7.46312 5.03507 7.4527 5.15314 7.47009 5.26874C7.48747 5.38433 7.53216 5.49411 7.60045 5.58898C7.66874 5.68385 7.75866 5.76107 7.86275 5.81425C7.96685 5.86742 8.08212 5.89501 8.19901 5.89474H13.3569V7.23505Z" fill="#939393"/>
</svg>
