<svg width="12" height="15" viewBox="0 0 12 15" fill="none" xmlns="http://www.w3.org/2000/svg">
<path d="M1.2373 2.62712C1.2373 2.19558 1.40873 1.78172 1.71388 1.47657C2.01902 1.17143 2.43288 1 2.86442 1H9.3729C9.80444 1 10.2183 1.17143 10.5234 1.47657C10.8286 1.78172 11 2.19558 11 2.62712V13.6102C11 13.6837 10.98 13.7559 10.9422 13.8191C10.9043 13.8822 10.8501 13.9338 10.7852 13.9686C10.7204 14.0033 10.6473 14.0198 10.5738 14.0163C10.5003 14.0128 10.4291 13.9894 10.3679 13.9486L6.11866 11.6584L1.86944 13.9486C1.80818 13.9894 1.73702 14.0128 1.66352 14.0163C1.59003 14.0198 1.51695 14.0033 1.45208 13.9686C1.38722 13.9338 1.33298 13.8822 1.29516 13.8191C1.25734 13.7559 1.23734 13.6837 1.2373 13.6102V2.62712ZM2.86442 1.81356C2.64865 1.81356 2.44172 1.89927 2.28915 2.05185C2.13658 2.20442 2.05086 2.41135 2.05086 2.62712V12.8503L5.8933 10.831C5.96007 10.7866 6.03847 10.7629 6.11866 10.7629C6.19885 10.7629 6.27726 10.7866 6.34402 10.831L10.1865 12.8503V2.62712C10.1865 2.41135 10.1007 2.20442 9.94817 2.05185C9.7956 1.89927 9.58867 1.81356 9.3729 1.81356H2.86442Z" fill="#939393" stroke="#939393" stroke-width="0.813559"/>
<path d="M6.11886 4.051C6.28069 4.051 6.43589 4.11529 6.55031 4.22972C6.66474 4.34415 6.72903 4.49935 6.72903 4.66117V5.67812H7.74598C7.9078 5.67812 8.063 5.74241 8.17743 5.85684C8.29186 5.97127 8.35615 6.12647 8.35615 6.28829C8.35615 6.45012 8.29186 6.60532 8.17743 6.71975C8.063 6.83418 7.90781 6.89846 7.74598 6.89846H6.72903V7.91541C6.72903 8.07724 6.66474 8.23244 6.55031 8.34687C6.43588 8.4613 6.28069 8.52558 6.11886 8.52558C5.95703 8.52558 5.80183 8.4613 5.6874 8.34687C5.57298 8.23244 5.50869 8.07724 5.50869 7.91541V6.89846H4.49174C4.32991 6.89846 4.17471 6.83418 4.06029 6.71975C3.94586 6.60532 3.88157 6.45012 3.88157 6.28829C3.88157 6.12647 3.94586 5.97127 4.06029 5.85684M6.11886 4.051L4.06029 5.85684M6.11886 4.051C5.95703 4.051 5.80183 4.11529 5.6874 4.22972M6.11886 4.051L5.6874 4.22972M4.06029 5.85684C4.17471 5.74241 4.32991 5.67812 4.49174 5.67812H5.50869M4.06029 5.85684L5.50869 5.67812M5.50869 5.67812V4.66117C5.50869 4.49935 5.57298 4.34415 5.6874 4.22972M5.50869 5.67812L5.6874 4.22972" fill="#939393" stroke="#939393" stroke-width="0.40678"/>
</svg>
