<svg width="18" height="14" viewBox="0 0 18 14" fill="none" xmlns="http://www.w3.org/2000/svg">
<path d="M17.0775 0.9679C16.498 0.380245 15.6799 0 14.7937 0H3.23825C2.35199 0 1.53391 0.380245 0.954432 0.9679C0.374955 1.59012 0 2.41975 0 3.31852V10.716C0 11.6148 0.374955 12.4444 0.954432 13.0321C1.53391 13.6198 2.35199 14 3.23825 14H14.7596C15.6459 14 16.4639 13.6198 17.0434 13.0321C17.6229 12.4444 17.9979 11.6148 17.9979 10.716V3.31852C18.0319 2.41975 17.657 1.59012 17.0775 0.9679ZM12.2713 7.19012C12.2372 7.25926 12.2031 7.29383 12.1349 7.32839L9.68066 8.74568L7.22641 10.1975C7.05598 10.3012 6.85146 10.2321 6.7492 10.0593C6.71511 9.99012 6.71511 9.92099 6.71511 9.88642V4.14815C6.71511 3.94074 6.85146 3.80247 7.05598 3.80247C7.12415 3.80247 7.19232 3.80247 7.2605 3.8716L9.68066 5.28889H9.71475L12.169 6.70617C12.3054 6.80988 12.3735 7.01728 12.2713 7.19012Z" fill="#F9F9FF"/>
</svg>
